<svg id="Layer_1" data-name="Layer 1" xmlns="http://www.w3.org/2000/svg" xmlns:xlink="http://www.w3.org/1999/xlink" viewBox="0 0 447.74 179.68"><defs><style>.cls-1{fill:none;}.cls-2{clip-path:url(#clip-path);}.cls-3{clip-path:url(#clip-path-2);}.cls-4{fill:url(#linear-gradient);}.cls-5{fill:#fff;}.cls-6{fill:#11d397;}.cls-7{fill:#0a4936;}</style><clipPath id="clip-path" transform="translate(-16.68 -158.25)"><rect id="SVGID" class="cls-1" width="512" height="512"/></clipPath><clipPath id="clip-path-2" transform="translate(-16.68 -158.25)"><path id="SVGID-2" data-name="SVGID" class="cls-1" d="M61.19,214.52v67.14A11.78,11.78,0,0,0,73,293.42h67.14a11.77,11.77,0,0,0,11.77-11.77V219.74l-.49.45a5.16,5.16,0,0,1-7.28-.31l-6-6.51a5.16,5.16,0,0,1,.32-7.28l3.48-3.18a10.42,10.42,0,0,0-1.83-.15H73a11.78,11.78,0,0,0-11.77,11.77"/></clipPath><linearGradient id="linear-gradient" x1="202.76" y1="310.22" x2="207.88" y2="310.22" gradientTransform="matrix(30.48, 0, 0, -30.48, -6146.24, 9704.88)" gradientUnits="userSpaceOnUse"><stop offset="0" stop-color="#0c5a47"/><stop offset="0.2" stop-color="#0c5a47"/><stop offset="1" stop-color="#0c8e6c"/></linearGradient></defs><title>logo black</title><g class="cls-2"><path d="M167.3,241.18h8.59v5H182c6.93,0,7.07-10.23,0-10.23H167.3v-8.59H182c12.55,0,16.71,12.09,12.62,20.21,11.82,5.55,9.51,26-6.67,26H167.3ZM188,264.95c6.93,0,7.07-10.23,0-10.23H175.89v10.23Z" transform="translate(-16.68 -158.25)"/><rect x="188.06" y="69.06" width="8.59" height="46.23"/><path d="M237.9,246.13v8.59h-7.79c-6.93,0-7.07,10.23,0,10.23h24v8.59h-24c-18.89,0-18.75-27.41,0-27.41Zm16.18-10.23h-34.8v-8.59h34.8Zm0,5.22c0,6.8-4.69,13.6-14.13,13.6h-7.79v-8.59h7.79a5.05,5.05,0,0,0,5.22-5Z" transform="translate(-16.68 -158.25)"/><rect x="240.04" y="69.06" width="8.59" height="46.23"/><path d="M268,227.31h8.59v46.23H268ZM297,273.54H268v-8.59H297Z" transform="translate(-16.68 -158.25)"/><path d="M368.86,273.33A23.12,23.12,0,1,1,392,250.21a23.15,23.15,0,0,1-23.12,23.12m14.53-23.12a14.53,14.53,0,1,0-14.53,14.53,14.57,14.57,0,0,0,14.53-14.53" transform="translate(-16.68 -158.25)"/><path d="M394.62,254.51v-8.59h20.67c6.94,0,7.07-10.24,0-10.24H394.62V227.1h20.67c18.89,0,18.75,27.41,0,27.41Zm0-13.54h8.59v32.36h-8.59Zm35,32.36H418.85l-15.65-18.82,7.59-4.3Z" transform="translate(-16.68 -158.25)"/><path d="M464.42,237.29H432.27V228.7h32.16Zm-18,10.23h12.08v8.59H446.4c-9.45,0-14.14-6.8-14.14-13.6h8.91a5.05,5.05,0,0,0,5.22,5m12.08,0v8.59H446.4c-6.94,0-7.07,10.23,0,10.23h18v8.59h-18c-18.89,0-18.76-27.41,0-27.41Z" transform="translate(-16.68 -158.25)"/></g><g class="cls-3"><rect class="cls-4" x="42.7" y="184.26" width="127.65" height="127.65" transform="translate(-169.38 14.34) rotate(-50.52)"/></g><g class="cls-2"><path class="cls-5" d="M101.88,228.35a5.52,5.52,0,0,0-4.14,1.81c-2.2,2.09-4.44,4.14-6.6,6.26-1.07,1.05-1.94,1.05-3-.05q-4.22-4.55-8.51-9c-1-1-1-1.78,0-2.77q4.56-4.21,9-8.53c1.13-1.1,2-1.09,3.11.12,2.11,2.36,4.31,4.65,6.52,6.92s4.14,2.31,6.46.16,4.65-4.32,6.92-6.53c1.14-1.12,2-1,3.11.12Q130,233,145.23,249c1.46,1.54,1.31,2.46-.18,3.86q-15.94,14.9-31.72,30c-1.49,1.42-2.5,1.51-3.87-.07-1.94-2.24-4-4.35-6.08-6.49-2.27-2.37-4.17-2.45-6.62-.22q-3.43,3.13-6.75,6.4c-1.19,1.17-2.11,1.2-3.27-.08-2.73-3-5.54-6-8.38-8.87-1.09-1.13-.91-2,.15-2.94,2.93-2.72,5.87-5.43,8.71-8.24,1.32-1.31,2.28-1.11,3.43.17,2,2.21,4,4.35,6.07,6.5,2.37,2.5,4.41,2.6,7,.23,6.3-5.88,12.53-11.82,18.85-17.69,1.1-1,.93-1.65,0-2.66-5.77-6-11.47-12.11-17.2-18.17-1.09-1.15-2.16-2.38-3.42-2.35" transform="translate(-16.68 -158.25)"/><path class="cls-5" d="M100.65,260.94c-.78,0-1.23-.53-1.7-1-2.14-2.25-4.25-4.52-6.41-6.75s-4.19-2.45-6.63-.2-4.64,4.33-6.92,6.53c-1.05,1-1.9,1.07-2.94-.06-2.8-3.05-5.65-6-8.51-9-.94-1-1-1.82,0-2.8,3-2.81,6.06-5.64,9-8.52,1.2-1.17,2.1-.93,3.12.19,1.9,2.09,3.86,4.13,5.81,6.18,3,3.14,4.73,3.18,7.84.22,2.1-2,4.23-4,6.31-6,1.07-1,1.94-1,3,.09q4.21,4.56,8.51,9c1,1,1,1.84,0,2.8-3,2.82-6,5.68-9,8.52a2.52,2.52,0,0,1-1.41.81" transform="translate(-16.68 -158.25)"/><path class="cls-6" d="M157.25,213.54l-5.39,4.94-1.11,1a4.23,4.23,0,0,1-6-.26l-6-6.5a4.23,4.23,0,0,1,.26-6l4-3.65,2.53-2.31a4.23,4.23,0,0,1,6,.26l6,6.5a4.23,4.23,0,0,1-.26,6" transform="translate(-16.68 -158.25)"/><path class="cls-7" d="M341.13,256.75l-15,13.76L323,273.35a11.77,11.77,0,0,1-16.65-.72l-16.6-18.09a11.78,11.78,0,0,1,.72-16.65l11.05-10.15,7-6.45a11.77,11.77,0,0,1,16.65.72l16.6,18.09a11.78,11.78,0,0,1-.73,16.65" transform="translate(-16.68 -158.25)"/><path class="cls-5" d="M301.28,245.66c-1.39,0-2.79,0-4.18,0-.51,0-.72-.07-.63-.67a19.44,19.44,0,0,1,16.63-16.6c.54-.07.64.1.63.58q0,4.27,0,8.54c0,.41-.11.57-.54.7a9.61,9.61,0,0,0-6.91,6.94c-.14.47-.36.51-.73.5h-4.26" transform="translate(-16.68 -158.25)"/><path class="cls-5" d="M313.72,262c0,1.34-.08,2.68,0,4,.08,1-.45.87-1,.77a19.43,19.43,0,0,1-16.23-16.42c-.1-.6.05-.76.63-.76q4.23,0,8.46,0a.61.61,0,0,1,.71.54,9.59,9.59,0,0,0,6.8,6.84.78.78,0,0,1,.64.92c0,1.37,0,2.73,0,4.1" transform="translate(-16.68 -158.25)"/><path class="cls-5" d="M331.49,242h-7a1.86,1.86,0,0,1-1.43-.67,9.84,9.84,0,0,0-4.82-3.06.71.71,0,0,1-.61-.83c0-2.79,0-5.58,0-8.37,0-.61.18-.72.76-.62a19.34,19.34,0,0,1,14.78,10.89,1.86,1.86,0,0,1-1.67,2.66" transform="translate(-16.68 -158.25)"/><path class="cls-5" d="M331.93,252.28a1.86,1.86,0,0,1,1.73,2.54,19.39,19.39,0,0,1-14.8,11.9c-1.21.22-1.21.22-1.21-1V261.9c0-1.36,0-2.73,0-4.09a.73.73,0,0,1,.62-.85,9.61,9.61,0,0,0,5.42-3.86,1.81,1.81,0,0,1,1.52-.83Z" transform="translate(-16.68 -158.25)"/></g></svg>