<svg id="Layer_1" data-name="Layer 1" xmlns="http://www.w3.org/2000/svg" xmlns:xlink="http://www.w3.org/1999/xlink" viewBox="0 0 403.24 93.73"><defs><style>.cls-1{fill:none;}.cls-2{clip-path:url(#clip-path);}.cls-3{fill:#fff;}.cls-4{clip-path:url(#clip-path-2);}.cls-5{fill:url(#linear-gradient);}.cls-6{clip-path:url(#clip-path-3);}.cls-7{fill:url(#linear-gradient-2);}.cls-8{fill:#11d397;}.cls-9{clip-path:url(#clip-path-5);}.cls-10{fill:url(#linear-gradient-3);}.cls-11{clip-path:url(#clip-path-6);}.cls-12{fill:url(#linear-gradient-4);}.cls-13{clip-path:url(#clip-path-7);}.cls-14{fill:url(#linear-gradient-5);}.cls-15{clip-path:url(#clip-path-8);}.cls-16{fill:url(#linear-gradient-6);}</style><clipPath id="clip-path" transform="translate(-61.19 -199.7)"><rect id="SVGID" class="cls-1" width="512" height="512"/></clipPath><clipPath id="clip-path-2" transform="translate(-61.19 -199.7)"><path id="SVGID-2" data-name="SVGID" class="cls-1" d="M88.71,216q-4.46,4.32-9,8.53c-1.06,1-1,1.79,0,2.78q4.3,4.48,8.51,9c1,1.1,1.88,1.1,3,.05,2.16-2.12,4.4-4.17,6.6-6.26a5.51,5.51,0,0,1,4.14-1.81c1.25,0,2.33,1.2,3.42,2.35,5.74,6.05,11.44,12.14,17.21,18.17,1,1,1.12,1.64,0,2.66-6.31,5.86-12.55,11.8-18.85,17.68-2.53,2.37-4.58,2.27-7-.23-2-2.15-4.09-4.29-6.07-6.49-1.14-1.28-2.1-1.47-3.43-.17-2.84,2.81-5.78,5.52-8.71,8.24-1.05,1-1.24,1.81-.15,2.94,2.84,2.91,5.64,5.87,8.37,8.87,1.16,1.29,2.09,1.25,3.28.08q3.3-3.27,6.75-6.4c2.44-2.22,4.34-2.15,6.62.22,2.05,2.14,4.15,4.24,6.08,6.48,1.37,1.58,2.38,1.5,3.87.08q15.77-15.05,31.71-30c1.5-1.4,1.65-2.32.18-3.87q-15.27-16-30.4-32.16c-1.1-1.17-2-1.24-3.11-.12-2.26,2.21-4.59,4.38-6.91,6.53s-4.24,2.11-6.46-.15-4.41-4.57-6.53-6.92a2.21,2.21,0,0,0-1.58-.92,2.31,2.31,0,0,0-1.53.8"/></clipPath><linearGradient id="linear-gradient" x1="196.22" y1="307.44" x2="201.34" y2="307.44" gradientTransform="matrix(13.4, 0, 0, -13.4, -2613.51, 4170.87)" gradientUnits="userSpaceOnUse"><stop offset="0" stop-color="#0c5a47"/><stop offset="0.2" stop-color="#0c5a47"/><stop offset="1" stop-color="#0c8e6c"/></linearGradient><clipPath id="clip-path-3" transform="translate(-61.19 -199.7)"><path id="SVGID-3" data-name="SVGID" class="cls-1" d="M76.6,239.06c-3,2.89-6,5.72-9,8.53-1.05,1-1,1.81,0,2.8,2.86,3,5.71,6,8.51,9,1,1.13,1.89,1.09,2.94.06,2.28-2.21,4.58-4.39,6.92-6.53s4.33-2.17,6.63.2,4.27,4.51,6.41,6.75c.47.5.92,1,1.7,1a2.46,2.46,0,0,0,1.41-.81c3-2.84,6-5.7,9-8.52,1-1,1-1.79.05-2.8q-4.3-4.48-8.51-9c-1-1.1-1.88-1.14-3-.09-2.07,2-4.21,4-6.31,6-3.11,3-4.84,2.92-7.84-.22-1.95-2-3.9-4.09-5.81-6.18a2.35,2.35,0,0,0-1.63-1,2.2,2.2,0,0,0-1.48.77"/></clipPath><linearGradient id="linear-gradient-2" x1="189.58" y1="307.7" x2="194.7" y2="307.7" gradientTransform="matrix(8.8, 0, 0, -8.8, -1662.58, 2757.42)" xlink:href="#linear-gradient"/><clipPath id="clip-path-5" transform="translate(-61.19 -199.7)"><path id="SVGID-5" data-name="SVGID" class="cls-1" d="M313.09,228.4A19.44,19.44,0,0,0,296.46,245c-.08.6.13.68.64.68,1.39,0,2.79,0,4.18,0s2.84,0,4.26,0c.37,0,.59,0,.73-.51a9.62,9.62,0,0,1,6.92-6.94c.42-.13.54-.29.54-.7q0-4.27,0-8.54c0-.41-.07-.59-.43-.59l-.21,0"/></clipPath><linearGradient id="linear-gradient-3" x1="216.35" y1="311.82" x2="221.47" y2="311.82" gradientTransform="matrix(3.38, 0, 0, -3.38, -495.02, 1089.89)" xlink:href="#linear-gradient"/><clipPath id="clip-path-6" transform="translate(-61.19 -199.7)"><path id="SVGID-6" data-name="SVGID" class="cls-1" d="M296.48,250.33a19.42,19.42,0,0,0,16.23,16.43c.58.09,1.11.21,1-.77-.1-1.33,0-2.67,0-4s0-2.73,0-4.09c0-.51-.11-.77-.65-.93a9.61,9.61,0,0,1-6.8-6.84c-.12-.43-.3-.54-.7-.54-2.82,0-5.64,0-8.46,0h0c-.56,0-.7.16-.61.75"/></clipPath><linearGradient id="linear-gradient-4" x1="216.34" y1="306.75" x2="221.46" y2="306.75" gradientTransform="matrix(3.38, 0, 0, -3.38, -495.52, 1094.76)" xlink:href="#linear-gradient"/><clipPath id="clip-path-7" transform="translate(-61.19 -199.7)"><path id="SVGID-7" data-name="SVGID" class="cls-1" d="M317.63,229c0,2.8,0,5.58,0,8.38a.71.71,0,0,0,.62.83,9.81,9.81,0,0,1,4.82,3.05,1.85,1.85,0,0,0,1.42.67h7a1.87,1.87,0,0,0,1.68-2.66,19.36,19.36,0,0,0-14.78-10.89l-.3,0c-.35,0-.47.16-.46.65"/></clipPath><linearGradient id="linear-gradient-5" x1="222.83" y1="312.78" x2="227.95" y2="312.78" gradientTransform="matrix(3.07, 0, 0, -3.07, -427.41, 995.4)" xlink:href="#linear-gradient"/><clipPath id="clip-path-8" transform="translate(-61.19 -199.7)"><path id="SVGID-8" data-name="SVGID" class="cls-1" d="M325.2,252.27a1.82,1.82,0,0,0-1.52.83,9.59,9.59,0,0,1-5.42,3.86.73.73,0,0,0-.62.85c0,1.37,0,2.73,0,4.09v3.83c0,1.2,0,1.2,1.21,1a19.38,19.38,0,0,0,14.8-11.91,1.86,1.86,0,0,0-1.73-2.54Z"/></clipPath><linearGradient id="linear-gradient-6" x1="222.41" y1="306.39" x2="227.53" y2="306.39" gradientTransform="matrix(3.15, 0, 0, -3.15, -445, 1026.24)" xlink:href="#linear-gradient"/></defs><title>logo white</title><g class="cls-2"><path class="cls-3" d="M151.37,220.19l.49-.45v61.93a11.78,11.78,0,0,1-11.77,11.77H73a11.78,11.78,0,0,1-11.77-11.77V214.52A11.77,11.77,0,0,1,73,202.75H140.1a10.38,10.38,0,0,1,1.83.15l-3.48,3.18a5.15,5.15,0,0,0-.32,7.28l6,6.5a5.16,5.16,0,0,0,7.28.32" transform="translate(-61.19 -199.7)"/></g><g class="cls-4"><rect class="cls-5" x="16.07" y="15.55" width="69.43" height="69.07"/></g><g class="cls-6"><rect class="cls-7" x="5.33" y="38.6" width="45.6" height="22.66"/></g><g class="cls-2"><path class="cls-8" d="M157.25,213.54l-5.39,4.94-1.11,1a4.23,4.23,0,0,1-6-.26l-6-6.5a4.23,4.23,0,0,1,.26-6l4-3.65,2.53-2.31a4.23,4.23,0,0,1,6,.26l6,6.5a4.23,4.23,0,0,1-.26,6" transform="translate(-61.19 -199.7)"/><path class="cls-3" d="M167.3,241.18h8.59v5H182c6.93,0,7.07-10.23,0-10.23H167.3v-8.59H182c12.55,0,16.71,12.09,12.62,20.21,11.82,5.55,9.51,26-6.67,26H167.3ZM188,264.95c6.93,0,7.07-10.23,0-10.23H175.89v10.23Z" transform="translate(-61.19 -199.7)"/><rect class="cls-3" x="143.56" y="27.61" width="8.59" height="46.23"/><path class="cls-3" d="M237.9,246.13v8.59h-7.79c-6.93,0-7.07,10.23,0,10.23h24v8.59h-24c-18.89,0-18.75-27.41,0-27.41Zm16.18-10.23h-34.8v-8.59h34.8Zm0,5.22c0,6.8-4.69,13.6-14.13,13.6h-7.79v-8.59h7.79a5.05,5.05,0,0,0,5.22-5Z" transform="translate(-61.19 -199.7)"/><rect class="cls-3" x="195.54" y="27.61" width="8.59" height="46.23"/><path class="cls-3" d="M268,227.31h8.59v46.23H268ZM297,273.54H268v-8.59H297Z" transform="translate(-61.19 -199.7)"/><path class="cls-3" d="M368.86,273.33A23.12,23.12,0,1,1,392,250.21a23.15,23.15,0,0,1-23.12,23.12m14.53-23.12a14.53,14.53,0,1,0-14.53,14.53,14.57,14.57,0,0,0,14.53-14.53" transform="translate(-61.19 -199.7)"/><path class="cls-3" d="M394.62,254.51v-8.59h20.67c6.94,0,7.07-10.24,0-10.24H394.62V227.1h20.67c18.89,0,18.75,27.41,0,27.41Zm0-13.54h8.59v32.36h-8.59Zm35,32.36H418.85l-15.65-18.82,7.59-4.3Z" transform="translate(-61.19 -199.7)"/><path class="cls-3" d="M464.42,237.29H432.27V228.7h32.16Zm-18,10.23h12.08v8.59H446.4c-9.45,0-14.14-6.8-14.14-13.6h8.91a5.05,5.05,0,0,0,5.22,5m12.08,0v8.59H446.4c-6.94,0-7.07,10.23,0,10.23h18v8.59h-18c-18.89,0-18.76-27.41,0-27.41Z" transform="translate(-61.19 -199.7)"/><path class="cls-3" d="M341.13,256.75l-15,13.76L323,273.35a11.77,11.77,0,0,1-16.65-.72l-16.6-18.09a11.78,11.78,0,0,1,.72-16.65l11.05-10.15,7-6.45a11.77,11.77,0,0,1,16.65.72l16.6,18.09a11.78,11.78,0,0,1-.73,16.65" transform="translate(-61.19 -199.7)"/></g><g class="cls-9"><rect class="cls-10" x="235.2" y="28.69" width="17.35" height="17.3"/></g><g class="cls-11"><rect class="cls-12" x="235.21" y="49.88" width="17.43" height="17.39"/></g><g class="cls-13"><rect class="cls-14" x="256.44" y="28.71" width="16.12" height="13.58"/></g><g class="cls-15"><rect class="cls-16" x="256.44" y="52.58" width="16.51" height="14.66"/></g></svg>