<svg xmlns="http://www.w3.org/2000/svg" viewBox="209 200 455 440">
  <g transform="translate(165.89 155.03)">
    <!-- Main zigzag B symbol -->
    <path fill="#0F6E56" d="M235.43,171.76c-9.62,0-14.71,4-19.51,8.45-10.37,9.71-20.91,19.29-31.09,29.19-5,4.89-9.12,4.89-13.92-.24Q151,188,130.8,167.11c-4.51-4.63-4.9-8.31.17-12.91q21.49-19.62,42.43-39.76c5.35-5.13,9.58-5.06,14.64.55,10,11,20.31,21.67,30.75,32.25s19.47,10.76,30.44.74,21.88-20.12,32.59-30.43c5.38-5.2,9.46-4.87,14.64.57Q367.81,193.29,439.64,268c6.9,7.16,6.17,11.5-.87,18q-75,69.42-149.43,139.63c-7,6.64-11.75,7-18.21-.33-9.12-10.45-19-20.26-28.66-30.24-10.71-11-19.66-11.41-31.16-1-10.78,9.74-21.44,19.67-31.82,29.83-5.6,5.47-10,5.61-15.41-.36q-19.36-21-39.46-41.34c-5.14-5.25-4.27-9.17.72-13.7,13.82-12.67,27.67-25.3,41.05-38.4,6.22-6.09,10.73-5.16,16.14.79,9.31,10.31,19,20.26,28.61,30.29,11.17,11.65,20.79,12.12,32.76,1.07,29.64-27.4,59-55.11,88.79-82.46,5.19-4.75,4.39-7.71-.12-12.39-27.18-28.07-54-56.47-81-84.68-5.14-5.37-10.2-11.07-16.09-11"/>
    <!-- Secondary path -->
    <path fill="#0F6E56" d="M198.65,323.67c-3.69.07-5.81-2.48-8-4.8-10.06-10.53-20-21.08-30.18-31.51-10.81-11.07-19.73-11.41-31.24-1q-16.5,15-32.56,30.46c-5,4.77-9,5-13.89-.26-13.17-14.23-26.61-28.19-40.09-42.13-4.44-4.58-4.82-8.47.17-13,14.3-13.1,28.54-26.28,42.48-39.74,5.67-5.47,9.89-4.32,14.69.91,9,9.74,18.19,19.26,27.35,28.81,14.13,14.63,22.29,14.82,36.93,1,9.89-9.31,19.95-18.43,29.72-27.85,5-4.85,9.14-4.7,13.92.43q19.83,21.27,40.11,42.08c4.58,4.7,4.63,8.57-.22,13.06-14.28,13.15-28.34,26.49-42.53,39.72-1.88,1.77-3.88,3.46-6.63,3.79"/>
    <!-- Green diamond accent (top right) -->
    <path fill="#11d397" d="M497.3,102.72l-25.38,23-5.23,4.75a20.06,20.06,0,0,1-28.15-1.22L410.46,99a19.58,19.58,0,0,1,1.23-27.85l18.72-17L442.3,43.36a20.09,20.09,0,0,1,28.17,1.22l28.05,30.29a19.54,19.54,0,0,1-1.23,27.85"/>
  </g>
</svg>
